<svg id="Layer_1" data-name="Layer 1" xmlns="http://www.w3.org/2000/svg" viewBox="0 0 800 800"><defs><style>.cls-1{fill:none;stroke:#ccc;}.cls-1,.cls-2{stroke-miterlimit:10;}.cls-2{fill:#231f20;stroke:#ccc;}</style></defs><title>AR23</title><path class="cls-2" d="M58,400h68.6c.4-127.2,87.3-234,205-264.6V263.2H194.8l68.4,68.4h68.4V400H400V58C211.3,58.5,58.5,211.3,58,400Z"/><path class="cls-2" d="M742,400a341.06,341.06,0,0,0-17-106c-.5-1.4-42-7.7-42-7.7s39.6.6,39.1-.9C674.8,153.1,548.5,58.4,400,58V400h68.4V135.4a274.66,274.66,0,0,1,168,127.8h-168l68.4,68.4H664.6a271.13,271.13,0,0,1,8.8,68.4Z"/><path class="cls-2" d="M126.6,400H58a350.27,350.27,0,0,0,7,68.4H331.6v68.4H86.8a344.66,344.66,0,0,0,39.6,67.8v.6h.4A342.27,342.27,0,0,0,400,742V673.4a273,273,0,0,1-180.1-68.2H400V400Z"/><path class="cls-2" d="M708.7,400H400v68.4H664.6a272.42,272.42,0,0,1-28.2,68.4H400l68.4,68.4H580.2A273.06,273.06,0,0,1,400,673.4V742c188.7-.5,341.5-153.3,342-342Z"/></svg>