<svg xmlns="http://www.w3.org/2000/svg" viewBox="0 0 134.07 25.25"><defs><style>.cls-1,.cls-2{fill:#fff;}.cls-2{stroke:#fff;stroke-miterlimit:10;stroke-width:0.25px;}</style></defs><title>logofpsvg</title><g id="Layer_2" data-name="Layer 2"><g id="Layer_1-2" data-name="Layer 1"><path class="cls-1" d="M26.7,17.19l1.8-.27h.36l2,.27v.72H26.7ZM32.07,5.75h1.08l4.14,12.16H35.62L32,7.12h.41L28.74,17.91h-.85ZM30,13.14h4.86l.29.83H29.67Zm3.55,4.05,2.27-.27h.36l2.23.27v.72H33.51Z"/><path class="cls-1" d="M40.13,14.13v-.85c0-1,0-1.55-.05-2.27l-1.44-.16v-.63l2.45-1.08.27.18.21,2.25v2.56c0,1.11,0,3,.06,3.78H40.08C40.11,17.1,40.13,15.24,40.13,14.13Zm-1.35,3.15,2-.36h.36l2,.36v.63H38.78Zm2.07-5.58h1l-.45.12c.57-1.67,1.67-2.68,2.73-2.68a1.53,1.53,0,0,1,1.28.61c0,.85-.32,1.32-1,1.32a1.63,1.63,0,0,1-1.08-.44l-.49-.41.88-.18a4.31,4.31,0,0,0-2.17,2.86h-.69Z"/><path class="cls-1" d="M49.51,17.24a2,2,0,0,0,1.22-.5l.42.48a2.57,2.57,0,0,1-2.09.92,1.82,1.82,0,0,1-2-2c0-.43,0-.81,0-1.51V10.31H45.55V9.54l2.23-.29-.72.59.54-2.91h1l-.14,3.15v5.83C48.5,16.85,48.9,17.24,49.51,17.24ZM51,9.37v.94H47.78V9.37Z"/><path class="cls-1" d="M51.8,6.75l.81-.9L52,9.05H51l.15-3.2H61l.14,3.2h-1l-.58-3.2.82.9Zm4.46,10.17,2.52.27v.72h-5.4v-.72l2.52-.27Zm-1-5.49c0-1.86,0-3.73-.05-5.58h1.72c0,1.81,0,3.69,0,5.58v.9c0,1.85,0,3.72,0,5.58H55.22c.05-1.82.05-3.69.05-5.58Z"/><path class="cls-1" d="M68,12.58a3.81,3.81,0,0,1-.12,1H61.19v-.76h4.29c.86,0,1.06-.41,1.06-.92a2,2,0,0,0-2-2c-1.15,0-2.49,1-2.49,3.55,0,2.28,1.16,3.51,3,3.51a3.11,3.11,0,0,0,2.52-1.28l.41.32a3.66,3.66,0,0,1-3.44,2.09c-2.41,0-4-1.67-4-4.41s1.88-4.59,4.11-4.59A3.22,3.22,0,0,1,68,12.58Z"/><path class="cls-1" d="M70.44,14.13v-.85c0-1,0-1.55,0-2.27L69,10.85v-.63L71.4,9.14l.27.18.21,2.25v2.56c0,1.11,0,3,.06,3.78H70.39C70.43,17.1,70.44,15.24,70.44,14.13Zm-1.35,3.15,2-.36h.36l2,.36v.63H69.09Zm2.07-5.58h1l-.45.12c.58-1.67,1.67-2.68,2.74-2.68a1.52,1.52,0,0,1,1.27.61c0,.85-.32,1.32-1,1.32a1.65,1.65,0,0,1-1.08-.44l-.49-.41L74,10a4.3,4.3,0,0,0-2.18,2.86h-.69Z"/><path class="cls-1" d="M77.46,14.13v-.85c0-1,0-1.55,0-2.27L76,10.85v-.63l2.45-1.08.27.18.21,2.25v2.56c0,1.11,0,3,.06,3.78H77.41C77.44,17.1,77.46,15.24,77.46,14.13Zm-1.35,3.15,2-.36h.36l2,.36v.63H76.11Zm2.07-5.58h1l-.45.12c.58-1.67,1.67-2.68,2.74-2.68a1.52,1.52,0,0,1,1.27.61c0,.85-.32,1.32-1,1.32a1.65,1.65,0,0,1-1.08-.44l-.49-.41.89-.18a4.3,4.3,0,0,0-2.18,2.86h-.69Z"/><path class="cls-1" d="M83,13.68c0-3,2-4.54,4.1-4.54a4.19,4.19,0,0,1,4.11,4.54,4.12,4.12,0,1,1-8.21,0Zm6.59,0c0-2.42-.92-3.73-2.49-3.73s-2.48,1.31-2.48,3.73.88,3.65,2.48,3.65S89.6,16.09,89.6,13.68Z"/><path class="cls-1" d="M93.63,14.13v-.85c0-1,0-1.55-.06-2.27l-1.44-.16v-.63l2.45-1.08.27.18.22,2.25v2.56c0,1.11,0,3,.05,3.78H93.57C93.61,17.1,93.63,15.24,93.63,14.13Zm-1.35,3.15,2-.36h.36l2,.36v.63H92.28Zm2.07-5.58h1l-.45.12c.58-1.67,1.68-2.68,2.74-2.68a1.56,1.56,0,0,1,1.28.61c0,.85-.33,1.32-1,1.32a1.67,1.67,0,0,1-1.08-.44l-.48-.41.88-.18A4.33,4.33,0,0,0,95,12.9h-.68Z"/><path class="cls-1" d="M97.24,22,97,21.37a4.62,4.62,0,0,0,2.81-3.46l.06.77L99,18a1.64,1.64,0,0,1-.66-1.28,1,1,0,0,1,1.08-1.12,1.57,1.57,0,0,1,1.11.53,4.55,4.55,0,0,1,.2,1.29A5.19,5.19,0,0,1,97.24,22Z"/><path class="cls-1" d="M106.24,6.56V5.85h5.05v.71l-2.35.28h-.35Zm2.7,10.36,2.35.27v.72h-5.05v-.72l2.35-.27Zm-1-5.49c0-1.86,0-3.73,0-5.58h1.73c0,1.81,0,3.69,0,5.58v.9c0,1.85,0,3.72,0,5.58H107.9c0-1.82,0-3.69,0-5.58Z"/><path class="cls-1" d="M113.62,17.91c0-.81.06-2.67.06-3.78v-.85c0-1,0-1.55-.06-2.27l-1.44-.16v-.63l2.45-1.08.27.18.22,2.09v2.72c0,1.11,0,3,0,3.78Zm2.81-.63v.63h-4.14v-.63l2-.36h.36Zm4.16-4.81v1.66c0,1.15,0,3,.06,3.78H119.1c0-.81.05-2.63.05-3.78V12.61c0-1.67-.43-2.21-1.51-2.21A4,4,0,0,0,115,11.64h-.37v-.81h.91l-.77.33a4.88,4.88,0,0,1,3.57-2C119.85,9.14,120.59,10.09,120.59,12.47Zm-.48,4.45,1.8.36v.63h-4.14v-.63l2-.36Z"/><path class="cls-1" d="M124.17,13.5c0,2.27,1.21,3.51,2.9,3.51a2.9,2.9,0,0,0,2.52-1.41l.43.22a3.22,3.22,0,0,1-3.33,2.32c-2.46,0-4-1.73-4-4.48a4.21,4.21,0,0,1,4.12-4.52A3.08,3.08,0,0,1,130,11.46a.75.75,0,0,1-.81.67.92.92,0,0,1-.95-.81l-.45-1.59.82.67a3.78,3.78,0,0,0-1.73-.45C125.29,10,124.17,11.19,124.17,13.5Z"/><path class="cls-1" d="M131.55,16.88a1.26,1.26,0,1,1,1.26,1.26A1.27,1.27,0,0,1,131.55,16.88Z"/><path class="cls-2" d="M.13,12.63h2.5A10,10,0,0,1,10.13,3V7.63h-5l2.5,2.5h2.5v2.5h2.5V.13A12.52,12.52,0,0,0,.13,12.63Z"/><path class="cls-2" d="M25.13,12.63a12.72,12.72,0,0,0-.63-3.88c0-.05-1.53-.28-1.53-.28a13.54,13.54,0,0,0,1.43,0A12.53,12.53,0,0,0,12.63.13v12.5h2.5V3a10,10,0,0,1,6.14,4.68H15.13l2.5,2.5H22.3a10.19,10.19,0,0,1,.32,2.5Z"/><path class="cls-2" d="M2.63,12.63H.13a12.92,12.92,0,0,0,.25,2.5h9.75v2.5H1.18A12.22,12.22,0,0,0,2.63,20.1v0h0a12.53,12.53,0,0,0,10,5V22.62A10,10,0,0,1,6,20.13h6.59v-7.5Z"/><path class="cls-2" d="M23.91,12.63H12.63v2.5H22.3a10.14,10.14,0,0,1-1,2.5H12.63l2.5,2.5h4.08a10,10,0,0,1-6.58,2.49v2.51a12.54,12.54,0,0,0,12.5-12.5Z"/></g></g></svg>