<?xml version="1.0" encoding="utf-8"?>
<!-- Generator: Adobe Illustrator 22.0.1, SVG Export Plug-In . SVG Version: 6.00 Build 0)  -->
<svg version="1.1" id="Layer_1" xmlns="http://www.w3.org/2000/svg" xmlns:xlink="http://www.w3.org/1999/xlink" x="0px" y="0px"
	 viewBox="0 0 800 800" style="enable-background:new 0 0 800 800;" xml:space="preserve">
<style type="text/css">
	.st0{fill:none;stroke:#CCCCCC;stroke-miterlimit:10;}
	.st1{display:none;}
	.st2{display:inline;fill:none;stroke:#231F20;stroke-miterlimit:10;}
	.st3{fill:#CCCCCC;stroke:#231F20;stroke-miterlimit:10;}
</style>
<g>
	<g>
		<rect x="58" y="58" class="st0" width="68.4" height="68.4"/>
		<rect x="58" y="126.4" class="st0" width="68.4" height="68.4"/>
		<rect x="58" y="194.8" class="st0" width="68.4" height="68.4"/>
		<rect x="58" y="263.2" class="st0" width="68.4" height="68.4"/>
		<rect x="58" y="331.6" class="st0" width="68.4" height="68.4"/>
	</g>
	<g>
		<rect x="126.4" y="58" class="st0" width="68.4" height="68.4"/>
		<rect x="126.4" y="126.4" class="st0" width="68.4" height="68.4"/>
		<rect x="126.4" y="194.8" class="st0" width="68.4" height="68.4"/>
		<rect x="126.4" y="263.2" class="st0" width="68.4" height="68.4"/>
		<rect x="126.4" y="331.6" class="st0" width="68.4" height="68.4"/>
	</g>
	<g>
		<rect x="194.8" y="58" class="st0" width="68.4" height="68.4"/>
		<rect x="194.8" y="126.4" class="st0" width="68.4" height="68.4"/>
		<rect x="194.8" y="194.8" class="st0" width="68.4" height="68.4"/>
		<rect x="194.8" y="263.2" class="st0" width="68.4" height="68.4"/>
		<rect x="194.8" y="331.6" class="st0" width="68.4" height="68.4"/>
	</g>
	<g>
		<rect x="263.2" y="58" class="st0" width="68.4" height="68.4"/>
		<rect x="263.2" y="126.4" class="st0" width="68.4" height="68.4"/>
		<rect x="263.2" y="194.8" class="st0" width="68.4" height="68.4"/>
		<rect x="263.2" y="263.2" class="st0" width="68.4" height="68.4"/>
		<rect x="263.2" y="331.6" class="st0" width="68.4" height="68.4"/>
	</g>
	<g>
		<rect x="331.6" y="58" class="st0" width="68.4" height="68.4"/>
		<rect x="331.6" y="126.4" class="st0" width="68.4" height="68.4"/>
		<rect x="331.6" y="194.8" class="st0" width="68.4" height="68.4"/>
		<rect x="331.6" y="263.2" class="st0" width="68.4" height="68.4"/>
		<rect x="331.6" y="331.6" class="st0" width="68.4" height="68.4"/>
	</g>
	<g>
		<rect x="58" y="400" class="st0" width="68.4" height="68.4"/>
		<rect x="58" y="468.4" class="st0" width="68.4" height="68.4"/>
		<rect x="58" y="536.8" class="st0" width="68.4" height="68.4"/>
		<rect x="58" y="605.2" class="st0" width="68.4" height="68.4"/>
		<rect x="58" y="673.6" class="st0" width="68.4" height="68.4"/>
	</g>
	<g>
		<rect x="126.4" y="400" class="st0" width="68.4" height="68.4"/>
		<rect x="126.4" y="468.4" class="st0" width="68.4" height="68.4"/>
		<rect x="126.4" y="536.8" class="st0" width="68.4" height="68.4"/>
		<rect x="126.4" y="605.2" class="st0" width="68.4" height="68.4"/>
		<rect x="126.4" y="673.6" class="st0" width="68.4" height="68.4"/>
	</g>
	<g>
		<rect x="194.8" y="400" class="st0" width="68.4" height="68.4"/>
		<rect x="194.8" y="468.4" class="st0" width="68.4" height="68.4"/>
		<rect x="194.8" y="536.8" class="st0" width="68.4" height="68.4"/>
		<rect x="194.8" y="605.2" class="st0" width="68.4" height="68.4"/>
		<rect x="194.8" y="673.6" class="st0" width="68.4" height="68.4"/>
	</g>
	<g>
		<rect x="263.2" y="400" class="st0" width="68.4" height="68.4"/>
		<rect x="263.2" y="468.4" class="st0" width="68.4" height="68.4"/>
		<rect x="263.2" y="536.8" class="st0" width="68.4" height="68.4"/>
		<rect x="263.2" y="605.2" class="st0" width="68.4" height="68.4"/>
		<rect x="263.2" y="673.6" class="st0" width="68.4" height="68.4"/>
	</g>
	<g>
		<rect x="331.6" y="400" class="st0" width="68.4" height="68.4"/>
		<rect x="331.6" y="468.4" class="st0" width="68.4" height="68.4"/>
		<rect x="331.6" y="536.8" class="st0" width="68.4" height="68.4"/>
		<rect x="331.6" y="605.2" class="st0" width="68.4" height="68.4"/>
		<rect x="331.6" y="673.6" class="st0" width="68.4" height="68.4"/>
	</g>
	<g>
		<rect x="400" y="58" class="st0" width="68.4" height="68.4"/>
		<rect x="400" y="126.4" class="st0" width="68.4" height="68.4"/>
		<rect x="400" y="194.8" class="st0" width="68.4" height="68.4"/>
		<rect x="400" y="263.2" class="st0" width="68.4" height="68.4"/>
		<rect x="400" y="331.6" class="st0" width="68.4" height="68.4"/>
	</g>
	<g>
		<rect x="468.4" y="58" class="st0" width="68.4" height="68.4"/>
		<rect x="468.4" y="126.4" class="st0" width="68.4" height="68.4"/>
		<rect x="468.4" y="194.8" class="st0" width="68.4" height="68.4"/>
		<rect x="468.4" y="263.2" class="st0" width="68.4" height="68.4"/>
		<rect x="468.4" y="331.6" class="st0" width="68.4" height="68.4"/>
	</g>
	<g>
		<rect x="536.8" y="58" class="st0" width="68.4" height="68.4"/>
		<rect x="536.8" y="126.4" class="st0" width="68.4" height="68.4"/>
		<rect x="536.8" y="194.8" class="st0" width="68.4" height="68.4"/>
		<rect x="536.8" y="263.2" class="st0" width="68.4" height="68.4"/>
		<rect x="536.8" y="331.6" class="st0" width="68.4" height="68.4"/>
	</g>
	<g>
		<rect x="605.2" y="58" class="st0" width="68.4" height="68.4"/>
		<rect x="605.2" y="126.4" class="st0" width="68.4" height="68.4"/>
		<rect x="605.2" y="194.8" class="st0" width="68.4" height="68.4"/>
		<rect x="605.2" y="263.2" class="st0" width="68.4" height="68.4"/>
		<rect x="605.2" y="331.6" class="st0" width="68.4" height="68.4"/>
	</g>
	<g>
		<rect x="673.6" y="58" class="st0" width="68.4" height="68.4"/>
		<rect x="673.6" y="126.4" class="st0" width="68.4" height="68.4"/>
		<rect x="673.6" y="194.8" class="st0" width="68.4" height="68.4"/>
		<rect x="673.6" y="263.2" class="st0" width="68.4" height="68.4"/>
		<rect x="673.6" y="331.6" class="st0" width="68.4" height="68.4"/>
	</g>
	<g>
		<rect x="400" y="400" class="st0" width="68.4" height="68.4"/>
		<rect x="400" y="468.4" class="st0" width="68.4" height="68.4"/>
		<rect x="400" y="536.8" class="st0" width="68.4" height="68.4"/>
		<rect x="400" y="605.2" class="st0" width="68.4" height="68.4"/>
		<rect x="400" y="673.6" class="st0" width="68.4" height="68.4"/>
	</g>
	<g>
		<rect x="468.4" y="400" class="st0" width="68.4" height="68.4"/>
		<rect x="468.4" y="468.4" class="st0" width="68.4" height="68.4"/>
		<rect x="468.4" y="536.8" class="st0" width="68.4" height="68.4"/>
		<rect x="468.4" y="605.2" class="st0" width="68.4" height="68.4"/>
		<rect x="468.4" y="673.6" class="st0" width="68.4" height="68.4"/>
	</g>
	<g>
		<rect x="536.8" y="400" class="st0" width="68.4" height="68.4"/>
		<rect x="536.8" y="468.4" class="st0" width="68.4" height="68.4"/>
		<rect x="536.8" y="536.8" class="st0" width="68.4" height="68.4"/>
		<rect x="536.8" y="605.2" class="st0" width="68.4" height="68.4"/>
		<rect x="536.8" y="673.6" class="st0" width="68.4" height="68.4"/>
	</g>
	<g>
		<rect x="605.2" y="400" class="st0" width="68.4" height="68.4"/>
		<rect x="605.2" y="468.4" class="st0" width="68.4" height="68.4"/>
		<rect x="605.2" y="536.8" class="st0" width="68.4" height="68.4"/>
		<rect x="605.2" y="605.2" class="st0" width="68.4" height="68.4"/>
		<rect x="605.2" y="673.6" class="st0" width="68.4" height="68.4"/>
	</g>
	<g>
		<rect x="673.6" y="400" class="st0" width="68.4" height="68.4"/>
		<rect x="673.6" y="468.4" class="st0" width="68.4" height="68.4"/>
		<rect x="673.6" y="536.8" class="st0" width="68.4" height="68.4"/>
		<rect x="673.6" y="605.2" class="st0" width="68.4" height="68.4"/>
		<rect x="673.6" y="673.6" class="st0" width="68.4" height="68.4"/>
	</g>
</g>
<g class="st1">
	<path class="st2" d="M400,58C211,58,58,211,58,400s153,342,342,342s342-153,342-342S589,58,400,58z M400,673.6
		c-151.2,0-273.6-122.4-273.6-273.6S248.8,126.4,400,126.4S673.6,248.8,673.6,400S551.2,673.6,400,673.6z"/>
	<rect x="126.4" y="400" class="st2" width="547.2" height="68.4"/>
	<rect x="400" y="126.4" class="st2" width="68.4" height="273.6"/>
	<rect x="331.6" y="126.4" class="st2" width="68.4" height="478.8"/>
	<rect x="536.8" y="263.2" class="st2" width="136.8" height="68.4"/>
	<rect x="194.8" y="263.2" class="st2" width="136.8" height="68.4"/>
	<rect x="86.2" y="536.8" class="st2" width="313.8" height="68.4"/>
	<rect x="468.4" y="536.8" class="st2" width="205.2" height="68.4"/>
</g>
<g>
	<path class="st3" d="M58,400h68.6c0.4-127.2,87.3-234,205-264.6v127.8H194.8l68.4,68.4h68.4V400H400V126.6V91.3V58
		C211.3,58.5,58.5,211.3,58,400z"/>
	<path class="st3" d="M742,400c-0.1-37-6-72.6-17-106c-0.5-1.4-42-7.7-42-7.7s39.6,0.6,39.1-0.9C674.8,153.1,548.5,58.4,400,58v33.3
		v35.2V400h68.4V135.4c71.6,18.6,131.7,65.4,168,127.8h-168l68.4,68.4h127.8c5.7,21.9,8.8,44.8,8.8,68.4H742z"/>
	<path class="st3" d="M126.6,400H91.3H58c0.1,23.4,2.5,46.3,7,68.4h70.4h196.2v68.4h-168h-37.2H86.8c10.6,24.2,24,46.9,39.6,67.8
		v0.6h0.4C189.2,688.1,288.3,741.7,400,742v-68.6c-69-0.2-132-25.9-180.1-68.2h111.7H400v-68.4v-68.4V400H126.6z"/>
	<path class="st3" d="M708.7,400h-35.2H400v68.4h264.6c-6.3,24.3-15.9,47.2-28.2,68.4H400l68.4,68.4h111.8
		c-48.1,42.3-111.1,68-180.2,68.2V742c188.7-0.5,341.5-153.3,342-342H708.7z"/>
</g>
</svg>
